<svg width="187" height="50" viewBox="0 0 187 50" fill="none" xmlns="http://www.w3.org/2000/svg">
<path d="M9.80079 0.615381C11.0726 0.615381 12.5085 0.594868 14.1085 0.553843C15.7495 0.471793 17.1444 0.369229 18.2931 0.246151C18.4162 0.410254 18.4777 0.779485 18.4777 1.35384C18.5187 1.88718 18.4572 2.25641 18.2931 2.46154C18.0469 2.46154 17.6162 2.50256 17.0008 2.58461C16.4264 2.62564 15.8726 2.7282 15.3392 2.8923C14.8469 3.01538 14.5392 3.22051 14.4162 3.50769C14.211 4.04102 14.088 4.71795 14.0469 5.53846C14.0059 6.35897 13.9854 7.30256 13.9854 8.36923C13.9854 8.49231 13.9854 8.63589 13.9854 8.8C13.9854 8.92307 13.9854 9.04615 13.9854 9.16923V31.2615C13.9854 31.3846 13.9854 31.5282 13.9854 31.6923C13.9854 31.8154 13.9854 31.9385 13.9854 32.0615C13.9854 33.1282 14.0059 34.0718 14.0469 34.8923C14.088 35.7128 14.211 36.3897 14.4162 36.9231C14.5392 37.1692 14.8469 37.3744 15.3392 37.5385C15.8726 37.7026 16.4264 37.8256 17.0008 37.9077C17.6162 37.9487 18.0469 37.9897 18.2931 38.0308C18.4572 38.2359 18.5187 38.6051 18.4777 39.1385C18.4777 39.6718 18.4162 40.041 18.2931 40.2462C17.1444 40.1231 15.729 40.0205 14.0469 39.9385C12.4059 39.8564 10.9495 39.8154 9.67771 39.8154C8.40591 39.8154 6.97002 39.8564 5.37002 39.9385C3.77002 40.0205 2.37514 40.1231 1.1854 40.2462C1.06232 40.041 0.980273 39.6718 0.939247 39.1385C0.939247 38.6051 1.0213 38.2359 1.1854 38.0308C1.47258 37.9897 1.90335 37.9487 2.47771 37.9077C3.05207 37.8256 3.60591 37.7026 4.13925 37.5385C4.67258 37.3744 4.98027 37.1692 5.06232 36.9231C5.30848 36.3077 5.45207 35.5282 5.49309 34.5846C5.53412 33.641 5.55463 32.5333 5.55463 31.2615V9.16923C5.55463 7.85641 5.53412 6.74871 5.49309 5.84615C5.45207 4.90256 5.30848 4.12307 5.06232 3.50769C4.98027 3.22051 4.67258 3.01538 4.13925 2.8923C3.60591 2.7282 3.05207 2.62564 2.47771 2.58461C1.90335 2.50256 1.47258 2.46154 1.1854 2.46154C1.0213 2.25641 0.939247 1.88718 0.939247 1.35384C0.980273 0.779485 1.06232 0.410254 1.1854 0.246151C2.37514 0.369229 3.79053 0.471793 5.43156 0.553843C7.07258 0.594868 8.52899 0.615381 9.80079 0.615381ZM31.5347 40.5151C30.5045 40.5151 29.3962 40.4527 28.2098 40.3278C27.0547 40.2341 25.962 40.1093 24.9318 39.9532C23.9328 39.7971 23.0742 39.641 22.3562 39.4849L22.5435 34.8488C23.3552 34.9424 24.2606 35.0517 25.2596 35.1766C26.2898 35.3015 27.2889 35.4107 28.2567 35.5044C29.2557 35.5668 30.0674 35.598 30.6918 35.598C31.6284 35.598 32.3932 35.52 32.9864 35.3639C33.6108 35.2078 34.0791 34.958 34.3913 34.6146C34.7035 34.24 34.8596 33.7093 34.8596 33.0224C34.8596 32.4917 34.7191 32.0859 34.4381 31.8049C34.1884 31.5239 33.6889 31.2898 32.9396 31.1024C32.2215 30.8839 31.1601 30.6654 29.7552 30.4468C28.0069 30.1971 26.5552 29.838 25.4001 29.3698C24.2762 28.9015 23.4489 28.2146 22.9181 27.3093C22.3874 26.3727 22.122 25.1083 22.122 23.5161C22.122 21.5805 22.5435 20.0663 23.3864 18.9737C24.2293 17.881 25.3532 17.1161 26.7581 16.679C28.163 16.2107 29.6928 15.9766 31.3474 15.9766C32.4401 15.9766 33.564 16.039 34.7191 16.1639C35.8742 16.2576 36.9669 16.3824 37.9971 16.5385C39.0274 16.6946 39.8859 16.8507 40.5728 17.0068L40.3854 21.7366C39.6049 21.6117 38.6996 21.5024 37.6693 21.4088C36.6391 21.2839 35.6089 21.1902 34.5786 21.1278C33.5796 21.0654 32.7367 21.0341 32.0498 21.0341C31.3318 21.0341 30.6918 21.1122 30.1298 21.2683C29.5679 21.3932 29.1308 21.6117 28.8186 21.9239C28.5376 22.2361 28.3971 22.7044 28.3971 23.3288C28.3971 23.7659 28.522 24.1249 28.7718 24.4059C29.0215 24.6868 29.4898 24.9366 30.1767 25.1551C30.8947 25.3424 31.9249 25.5298 33.2674 25.7171C35.203 25.998 36.7484 26.3883 37.9035 26.8878C39.0586 27.3873 39.8859 28.1054 40.3854 29.042C40.9162 29.9785 41.1815 31.2429 41.1815 32.8351C41.1815 34.7083 40.8069 36.2068 40.0576 37.3307C39.3084 38.4546 38.2157 39.2663 36.7796 39.7659C35.3435 40.2654 33.5952 40.5151 31.5347 40.5151ZM45.4715 40V6.89171H51.6998V40H45.4715ZM63.1719 40.5151C60.7368 40.5151 58.8948 39.9063 57.646 38.6888C56.4285 37.44 55.8197 35.5668 55.8197 33.0693C55.8197 31.321 56.1319 29.9629 56.7563 28.9951C57.3807 27.9961 58.3017 27.278 59.5192 26.841C60.768 26.3727 62.2821 26.0917 64.0617 25.998L69.7748 25.4829V24.078C69.7748 22.9541 69.4939 22.1737 68.9319 21.7366C68.37 21.2683 67.5426 21.0341 66.45 21.0341C65.5758 21.0341 64.5612 21.0654 63.406 21.1278C62.2821 21.1902 61.1582 21.2683 60.0343 21.3619C58.9417 21.4556 57.9895 21.5493 57.1778 21.6429L56.9904 17.241C57.8021 17.0537 58.77 16.8663 59.8939 16.679C61.049 16.4605 62.2509 16.2888 63.4997 16.1639C64.7485 16.039 65.9036 15.9766 66.9651 15.9766C68.9631 15.9766 70.6334 16.2263 71.9758 16.7259C73.3182 17.2254 74.3329 18.0527 75.0197 19.2078C75.7065 20.3317 76.05 21.8615 76.05 23.7971V34.521C76.1124 34.958 76.3465 35.3015 76.7524 35.5512C77.1582 35.7698 77.6265 35.9259 78.1573 36.0195L78.0168 40.3278C77.5173 40.3278 77.0178 40.3278 76.5182 40.3278C76.05 40.359 75.5973 40.359 75.1602 40.3278C74.7231 40.3278 74.3329 40.2966 73.9895 40.2341C73.2714 40.1405 72.647 39.9532 72.1163 39.6722C71.6168 39.3912 71.2109 39.0946 70.8987 38.7824C70.3992 39.001 69.728 39.2507 68.8851 39.5317C68.0421 39.8127 67.1212 40.0468 66.1221 40.2341C65.1543 40.4215 64.1709 40.5151 63.1719 40.5151ZM64.6704 35.879C65.2636 35.879 65.888 35.8166 66.5436 35.6917C67.1992 35.5668 67.808 35.4263 68.37 35.2702C68.9631 35.0829 69.4314 34.9112 69.7748 34.7551V29.3698L64.9982 29.7912C63.968 29.8849 63.2187 30.1971 62.7504 30.7278C62.3134 31.2273 62.0948 31.9454 62.0948 32.882C62.0948 33.8185 62.2978 34.5522 62.7036 35.0829C63.1407 35.6137 63.7963 35.879 64.6704 35.879ZM81.5495 40V16.4917H87.7778V17.9902C88.246 17.678 88.8392 17.3815 89.5573 17.1005C90.2753 16.7883 91.0246 16.5229 91.8051 16.3044C92.6168 16.0859 93.3973 15.9766 94.1465 15.9766C95.5826 15.9766 96.7534 16.1795 97.6587 16.5854C98.5641 16.96 99.3134 17.5219 99.9065 18.2712C100.468 17.9278 101.171 17.5844 102.014 17.241C102.857 16.8976 103.778 16.601 104.777 16.3512C105.776 16.1015 106.744 15.9766 107.68 15.9766C109.397 15.9766 110.802 16.2107 111.895 16.679C113.019 17.1161 113.893 17.8185 114.517 18.7863C115.142 19.7229 115.579 20.9405 115.828 22.439C116.078 23.9063 116.203 25.6859 116.203 27.7776V40H109.975V28.3395C109.975 26.7161 109.881 25.4049 109.694 24.4059C109.538 23.3756 109.194 22.6263 108.664 22.158C108.164 21.6898 107.399 21.4556 106.369 21.4556C105.807 21.4556 105.214 21.518 104.589 21.6429C103.965 21.7366 103.388 21.8771 102.857 22.0644C102.357 22.2517 101.951 22.4234 101.639 22.5795C101.795 23.2351 101.905 24.078 101.967 25.1083C102.061 26.1385 102.108 27.2156 102.108 28.3395V40H95.8792V28.4332C95.8792 26.7785 95.7856 25.4361 95.5982 24.4059C95.4421 23.3756 95.0987 22.6263 94.568 22.158C94.0373 21.6898 93.2724 21.4556 92.2734 21.4556C91.7114 21.4556 91.1339 21.518 90.5407 21.6429C89.9787 21.7366 89.448 21.8771 88.9485 22.0644C88.4802 22.2517 88.09 22.4234 87.7778 22.5795V40H81.5495ZM121.153 40V16.4917H127.381V40H121.153ZM121.153 12.7454V7.40683H127.428V12.7454H121.153Z" fill="#114620"/>
<path d="M132.586 49.881V16.4917H138.768L138.814 17.9902C139.251 17.7093 139.798 17.4127 140.453 17.1005C141.14 16.7883 141.874 16.5229 142.654 16.3044C143.435 16.0859 144.2 15.9766 144.949 15.9766C147.041 15.9766 148.727 16.4293 150.007 17.3346C151.318 18.2088 152.27 19.5512 152.863 21.3619C153.488 23.1415 153.8 25.4049 153.8 28.1522C153.8 31.0868 153.456 33.4595 152.769 35.2702C152.083 37.081 150.974 38.4078 149.445 39.2507C147.946 40.0937 145.964 40.5151 143.497 40.5151C142.717 40.5151 141.874 40.4527 140.968 40.3278C140.063 40.2029 139.345 40.078 138.814 39.9532V49.881H132.586ZM142.514 35.3171C143.763 35.3171 144.746 35.0517 145.464 34.521C146.182 33.9902 146.682 33.1941 146.963 32.1327C147.275 31.04 147.431 29.6663 147.431 28.0117C147.431 25.4517 147.072 23.6878 146.354 22.72C145.667 21.721 144.668 21.2215 143.357 21.2215C142.857 21.2215 142.327 21.2839 141.765 21.4088C141.203 21.5337 140.656 21.6898 140.126 21.8771C139.595 22.0644 139.158 22.2517 138.814 22.439V34.9893C139.189 35.0205 139.72 35.0829 140.407 35.1766C141.125 35.2702 141.827 35.3171 142.514 35.3171ZM158.059 40V16.4917H164.287V40H158.059ZM158.059 12.7454V7.40683H164.334V12.7454H158.059ZM179.092 40.5151C176.407 40.5151 174.299 40.1093 172.77 39.2976C171.271 38.4546 170.21 37.1122 169.585 35.2702C168.992 33.4283 168.695 31.0088 168.695 28.0117C168.695 25.0459 169.039 22.6888 169.726 20.9405C170.413 19.161 171.521 17.8966 173.051 17.1473C174.612 16.3668 176.641 15.9766 179.138 15.9766C179.794 15.9766 180.559 16.0234 181.433 16.1171C182.307 16.2107 183.181 16.3356 184.055 16.4917C184.961 16.6166 185.726 16.7415 186.35 16.8663L186.116 21.8771C185.523 21.8146 184.852 21.7678 184.102 21.7366C183.353 21.6741 182.619 21.6273 181.901 21.5961C181.214 21.5337 180.653 21.5024 180.215 21.5024C178.873 21.5024 177.812 21.721 177.031 22.158C176.282 22.5639 175.751 23.2507 175.439 24.2185C175.158 25.1551 175.017 26.4195 175.017 28.0117C175.017 29.7288 175.158 31.1024 175.439 32.1327C175.72 33.1629 176.219 33.8966 176.937 34.3337C177.687 34.7707 178.779 34.9893 180.215 34.9893C180.653 34.9893 181.23 34.9737 181.948 34.9424C182.666 34.88 183.4 34.8176 184.149 34.7551C184.93 34.6927 185.616 34.6459 186.21 34.6146L186.397 39.6254C185.773 39.7502 185.023 39.8751 184.149 40C183.275 40.1561 182.385 40.281 181.48 40.3746C180.606 40.4683 179.81 40.5151 179.092 40.5151Z" fill="#190F00"/>
</svg>
